<svg xmlns="http://www.w3.org/2000/svg" version="1.1" xmlns:xlink="http://www.w3.org/1999/xlink" xmlns:svgjs="http://svgjs.dev/svgjs" width="1920" height="160" preserveAspectRatio="none" viewBox="0 0 1920 160"><g clip-path="url(&quot;#SvgjsClipPath1027&quot;)" fill="none"><rect width="1920" height="160" x="0" y="0" fill="rgba(244, 244, 245, 1)"></rect><circle r="26.665" cx="-4.16" cy="13.99" stroke="#b4bac5" stroke-opacity="0.25" stroke-width="2"></circle><circle r="26.665" cx="86.54" cy="99.91" stroke="#b4bac5" stroke-opacity="0.25" stroke-width="2"></circle><circle r="26.665" cx="194.21" cy="196.56" stroke="#b4bac5" stroke-opacity="0.25" stroke-width="2"></circle><circle r="26.665" cx="343.01" cy="328.19" stroke="#b4bac5" stroke-opacity="0.25" stroke-width="2"></circle><circle r="26.665" cx="407.13" cy="451.44" stroke="#b4bac5" stroke-opacity="0.25" stroke-width="2"></circle><circle r="26.665" cx="529.22" cy="532.02" stroke="#b4bac5" stroke-opacity="0.25" stroke-width="2"></circle><circle r="26.665" cx="650.98" cy="658.6" stroke="#b4bac5" stroke-opacity="0.25" stroke-width="2"></circle><circle r="26.665" cx="720.29" cy="727.28" stroke="#b4bac5" stroke-opacity="0.25" stroke-width="2"></circle><circle r="26.665" cx="839.52" cy="839.13" stroke="#b4bac5" stroke-opacity="0.25" stroke-width="2"></circle><circle r="26.665" cx="951.65" cy="941.36" stroke="#b4bac5" stroke-opacity="0.25" stroke-width="2"></circle><circle r="26.665" cx="1085.25" cy="1081.47" stroke="#b4bac5" stroke-opacity="0.25" stroke-width="2"></circle><circle r="26.665" cx="1154.27" cy="1186.95" stroke="#b4bac5" stroke-opacity="0.25" stroke-width="2"></circle><circle r="26.665" cx="1258.82" cy="1290.63" stroke="#b4bac5" stroke-opacity="0.25" stroke-width="2"></circle><circle r="26.665" cx="1407.44" cy="1369.94" stroke="#b4bac5" stroke-opacity="0.25" stroke-width="2"></circle><circle r="26.665" cx="1472.39" cy="1516.62" stroke="#b4bac5" stroke-opacity="0.25" stroke-width="2"></circle><circle r="26.665" cx="1613.27" cy="1607.83" stroke="#b4bac5" stroke-opacity="0.25" stroke-width="2"></circle><circle r="26.665" cx="1683.03" cy="1715.38" stroke="#b4bac5" stroke-opacity="0.25" stroke-width="2"></circle><circle r="26.665" cx="1802.69" cy="1835.09" stroke="#b4bac5" stroke-opacity="0.25" stroke-width="2"></circle><circle r="29.69" cx="204.56" cy="98.74" stroke="#b4bac5" stroke-opacity="0.25" stroke-width="2"></circle><circle r="17.4" cx="987.86" cy="126.78" stroke="#b4bac5" stroke-opacity="0.25" stroke-width="2"></circle><circle r="43.78" cx="766.51" cy="109.93" stroke="#b4bac5" stroke-opacity="0.25" stroke-width="2"></circle><circle r="34.39" cx="1539.81" cy="118.68" stroke="#b4bac5" stroke-opacity="0.25" stroke-width="2"></circle><circle r="32.045" cx="437.08" cy="156.55" stroke="#b4bac5" stroke-opacity="0.25" stroke-width="2"></circle><circle r="16.025" cx="1339.53" cy="41.63" stroke="#b4bac5" stroke-opacity="0.25" stroke-width="2"></circle><circle r="42.41" cx="1180.55" cy="46.72" stroke="#b4bac5" stroke-opacity="0.25" stroke-width="2"></circle><circle r="16.315" cx="964.96" cy="18.32" stroke="#b4bac5" stroke-opacity="0.25" stroke-width="2"></circle><circle r="29.975" cx="177.24" cy="114.09" stroke="#b4bac5" stroke-opacity="0.25" stroke-width="2"></circle><circle r="16.795" cx="345.24" cy="123.89" stroke="#b4bac5" stroke-opacity="0.25" stroke-width="2"></circle><circle r="22.62" cx="780.72" cy="136" stroke="#b4bac5" stroke-opacity="0.25" stroke-width="2"></circle><circle r="50.175" cx="1585.11" cy="17.73" stroke="#b4bac5" stroke-opacity="0.25" stroke-width="2"></circle><circle r="28.015" cx="1642.19" cy="65.24" stroke="#b4bac5" stroke-opacity="0.25" stroke-width="2"></circle><circle r="29.41" cx="656.9" cy="118.62" stroke="#b4bac5" stroke-opacity="0.25" stroke-width="2"></circle><circle r="14.86" cx="1357.08" cy="35.24" stroke="#b4bac5" stroke-opacity="0.25" stroke-width="2"></circle><circle r="51.23" cx="1148.5" cy="74.15" stroke="#b4bac5" stroke-opacity="0.25" stroke-width="2"></circle><circle r="33.125" cx="30.83" cy="58.7" stroke="#b4bac5" stroke-opacity="0.25" stroke-width="2"></circle><circle r="38.655" cx="675.56" cy="86.12" stroke="#b4bac5" stroke-opacity="0.25" stroke-width="2"></circle><circle r="38.545" cx="1608.24" cy="127.25" stroke="#b4bac5" stroke-opacity="0.25" stroke-width="2"></circle><circle r="15.27" cx="145.83" cy="97.98" stroke="#b4bac5" stroke-opacity="0.25" stroke-width="2"></circle><circle r="38.585" cx="865.78" cy="25.26" stroke="#b4bac5" stroke-opacity="0.25" stroke-width="2"></circle><circle r="31.355" cx="1145.43" cy="135.32" stroke="#b4bac5" stroke-opacity="0.25" stroke-width="2"></circle><circle r="44" cx="793.32" cy="31.48" stroke="#b4bac5" stroke-opacity="0.25" stroke-width="2"></circle><circle r="22.35" cx="1326.77" cy="42.44" stroke="#b4bac5" stroke-opacity="0.25" stroke-width="2"></circle><circle r="22.26" cx="1792.16" cy="71.49" stroke="#b4bac5" stroke-opacity="0.25" stroke-width="2"></circle><circle r="22.045" cx="380.58" cy="20.37" stroke="#b4bac5" stroke-opacity="0.25" stroke-width="2"></circle><circle r="25.955" cx="1841.9" cy="57.74" stroke="#b4bac5" stroke-opacity="0.25" stroke-width="2"></circle><circle r="43.385" cx="72.24" cy="157.83" stroke="#b4bac5" stroke-opacity="0.25" stroke-width="2"></circle><circle r="51.19" cx="192.03" cy="43.98" stroke="#b4bac5" stroke-opacity="0.25" stroke-width="2"></circle><circle r="46.405" cx="261.95" cy="0.3" stroke="#b4bac5" stroke-opacity="0.25" stroke-width="2"></circle><circle r="32.08" cx="290.51" cy="83.75" stroke="#b4bac5" stroke-opacity="0.25" stroke-width="2"></circle><circle r="18.515" cx="1613.99" cy="25.17" stroke="#b4bac5" stroke-opacity="0.25" stroke-width="2"></circle><circle r="46.295" cx="90.58" cy="59.61" stroke="#b4bac5" stroke-opacity="0.25" stroke-width="2"></circle><circle r="23.115" cx="1100.85" cy="143.65" stroke="#b4bac5" stroke-opacity="0.25" stroke-width="2"></circle><circle r="19.865" cx="232.14" cy="117.13" stroke="#b4bac5" stroke-opacity="0.25" stroke-width="2"></circle><circle r="23.4" cx="1542.42" cy="33.46" stroke="#b4bac5" stroke-opacity="0.25" stroke-width="2"></circle><circle r="31.785" cx="440.69" cy="13.71" stroke="#b4bac5" stroke-opacity="0.25" stroke-width="2"></circle><circle r="27.345" cx="501.52" cy="34.89" stroke="#b4bac5" stroke-opacity="0.25" stroke-width="2"></circle><circle r="35.49" cx="971.87" cy="132.02" stroke="#b4bac5" stroke-opacity="0.25" stroke-width="2"></circle><circle r="31.28" cx="1742.4" cy="104.47" stroke="#b4bac5" stroke-opacity="0.25" stroke-width="2"></circle><circle r="22.03" cx="1703.02" cy="12.77" stroke="#b4bac5" stroke-opacity="0.25" stroke-width="2"></circle><circle r="40.33" cx="1368.51" cy="63.65" stroke="#b4bac5" stroke-opacity="0.25" stroke-width="2"></circle><circle r="40.26" cx="727.03" cy="128.3" stroke="#b4bac5" stroke-opacity="0.25" stroke-width="2"></circle><circle r="53.125" cx="1024.13" cy="27.53" stroke="#b4bac5" stroke-opacity="0.25" stroke-width="2"></circle><circle r="41.71" cx="1233.33" cy="42.88" stroke="#b4bac5" stroke-opacity="0.25" stroke-width="2"></circle><circle r="33.86" cx="1119.57" cy="56.83" stroke="#b4bac5" stroke-opacity="0.25" stroke-width="2"></circle><circle r="45.235" cx="1318.08" cy="53.51" stroke="#b4bac5" stroke-opacity="0.25" stroke-width="2"></circle></g><defs><clipPath id="SvgjsClipPath1027"><rect width="1920" height="160" x="0" y="0"></rect></clipPath></defs></svg>